PathFileType	4	(X/Y/Z)	/Users/niels/Desktop/University/Third Semester/Perception and Action/Exam/Gymnastics Motion Tracking/Code for Gym Tracking/Analyzed Data/Webcam_Backflip/id2005_1_trajectory_Sports2D/id2005_1_trajectory_Sports2D_px_person00.trc
DataRate	CameraRate	NumFrames	NumMarkers	Units	OrigDataRate	OrigDataStartFrame	OrigNumFrames
29.77272727272727	29.77272727272727	20	22	m	29.77272727272727	105	132
Frame#	Time	Hip			RHip			RKnee			RAnkle			RBigToe			RSmallToe			RHeel			LHip			LKnee			LAnkle			LBigToe			LSmallToe			LHeel			Neck			Head			Nose			RShoulder			RElbow			RWrist			LShoulder			LElbow			LWrist		
		X1	Y1	Z1	X2	Y2	Z2	X3	Y3	Z3	X4	Y4	Z4	X5	Y5	Z5	X6	Y6	Z6	X7	Y7	Z7	X8	Y8	Z8	X9	Y9	Z9	X10	Y10	Z10	X11	Y11	Z11	X12	Y12	Z12	X13	Y13	Z13	X14	Y14	Z14	X15	Y15	Z15	X16	Y16	Z16	X17	Y17	Z17	X18	Y18	Z18	X19	Y19	Z19	X20	Y20	Z20	X21	Y21	Z21	X22	Y22	Z22
105	3.5267175572519087	0.8812500001056979	-1.1148339846642832	0.0			0.0			0.0			0.0			0.0			0.0			0.0			0.0	1.4137126569903928	-0.9466524315502697	0.0			0.0			0.0			0.0			0.0	0.887724619608197	-0.7429928976712269	0.0	0.861837372887702	-0.17295811373583986	0.0	0.8658542175018853	-0.3989094479076566	0.0	0.4297519543234164	-0.9671980694370694	0.0	0.20182284607552645	-1.0660691947591878	0.0			0.0	1.3638016624125455	-0.8969187415244315	0.0	1.5770577178706644	-1.0752807489070841	0.0			0.0
106	3.5603053435114504	0.8812500000349618	-1.1148339845053519	0.0			0.0			0.0			0.0			0.0			0.0			0.0			0.0	1.4137023988834083	-0.9467189786105457	0.0			0.0			0.0			0.0			0.0	0.887916390649635	-0.743264412774592	0.0	0.8621934423702134	-0.17292502327681142	0.0	0.8662914125292589	-0.39986253334376476	0.0	0.428510023096268	-0.9678130312236128	0.0	0.20143143144575615	-1.0656677102658028	0.0			0.0	1.36361831250631	-0.8970659657440886	0.0	1.5833167213667336	-1.0748544318838833	0.0			0.0
107	3.5938931297709926	0.8812499999963285	-1.1148339844045732	0.0			0.0			0.0			0.0			0.0			0.0			0.0			0.0	1.4136948128387248	-0.9467619161704779	0.0			0.0			0.0			0.0			0.0	0.8882723291723121	-0.7433446815961363	0.0	0.8624474268564222	-0.17307988441323116	0.0	0.8666174449866744	-0.4007741742917726	0.0	0.4278339099096411	-0.9678054060378752	0.0	0.20045040959499885	-1.0654002815564922	0.0			0.0	1.3636100762626955	-0.8969509310725391	0.0	1.5920029773803437	-1.0748117764693597	0.0			0.0
108	3.6274809160305344	0.8812499999813712	-1.1148339843549921	0.0			0.0			0.0			0.0			0.0			0.0			0.0			0.0	1.4136917143167942	-0.9467832308815145	0.0			0.0			0.0			0.0			0.0	0.8886922874761916	-0.7432959777899044	0.0	0.862445957940129	-0.1734018394526608	0.0	0.8667778971711005	-0.4014462823130075	0.0	0.4279548144841743	-0.9672027278202129	0.0	0.19890063450522844	-1.0653129179164054	0.0			0.0	1.3637855289446879	-0.8967241918635288	0.0	1.6010256454168743	-1.0753596076012517	0.0			0.0
109	3.6610687022900765	0.8812499999802232	-1.1148339843399238	0.0			0.0			0.0			0.0			0.0			0.0			0.0			0.0	1.4136959890265617	-0.9467888480933915	0.0			0.0			0.0			0.0			0.0	0.8890023623268889	-0.7433658067263045	0.0	0.8623560758061235	-0.17362299639160572	0.0	0.8667834784130013	-0.401869239715784	0.0	0.42866255833243133	-0.9663547784098027	0.0	0.197142671318861	-1.0653866082603567	0.0			0.0	1.3641289368653855	-0.8967001264364359	0.0	1.6060597177560316	-1.0764055488314206	0.0			0.0
110	3.6946564885496187	0.8812499999850856	-1.1148339843431678	0.0			0.0			0.0			0.0			0.0			0.0			0.0			0.0	1.4137118849259327	-0.9467843501923892	0.0			0.0			0.0			0.0			0.0	0.8890522162438369	-0.7437831770599455	0.0	0.8625105195219386	-0.17343936476063465	0.0	0.8666383116786248	-0.4022427068529143	0.0	0.42937671474886685	-0.9657122966216816	0.0	0.19566573051708142	-1.0655666068548424	0.0			0.0	1.3645670359618347	-0.8971080692351111	0.0	1.6045291234236727	-1.077531402812957	0.0			0.0
111	3.7282442748091604	0.881249999991117	-1.114833984353096	0.0			0.0			0.0			0.0			0.0			0.0			0.0			0.0	1.4137438837221552	-0.9467734936597084	0.0			0.0			0.0			0.0			0.0	0.8888231070129967	-0.7445614491906223	0.0	0.8631559078351763	-0.17269389758008274	0.0	0.866294446177044	-0.4029249986672821	0.0	0.42953153013887385	-0.9655687974927057	0.0	0.1950925049812677	-1.065724527872635	0.0			0.0	1.3649986692889398	-0.8979551245849781	0.0	1.599009192670584	-1.0782526186422363	0.0			0.0
112	3.7618320610687026	0.8812499999960035	-1.1148339843631045	0.0			0.0			0.0			0.0			0.0			0.0			0.0			0.0	1.413793502197888	-0.9467586710857815	0.0			0.0			0.0			0.0			0.0	0.8884678799661329	-0.7455583991579617	0.0	0.8642075289236089	-0.1714067948017824	0.0	0.8656805953882972	-0.4041263074159318	0.0	0.42893529314578016	-0.9659902477719301	0.0	0.1958431113469894	-1.065725597588946	0.0			0.0	1.3653741677245368	-0.8990406509318403	0.0	1.5948359462910127	-1.0783886518281405	0.0			0.0
113	3.7954198473282443	0.881249999999099	-1.1148339843704456	0.0			0.0			0.0			0.0			0.0			0.0			0.0			0.0	1.4138535150160232	-0.9467426148903245	0.0			0.0			0.0			0.0			0.0	0.8882142132790634	-0.746652387877327	0.0	0.8652554483094294	-0.16980287459673718	0.0	0.8648350277846419	-0.4056823693591281	0.0	0.42780140618304857	-0.9668547886640491	0.0	0.1975382314375809	-1.0654606644018934	0.0			0.0	1.3657308995519661	-0.9000698254441759	0.0	1.5961038679463586	-1.0780527609204331	0.0			0.0
114	3.8290076335877865	0.8812500000006199	-1.1148339843747048	0.0			0.0			0.0			0.0			0.0			0.0			0.0			0.0	1.4138998409423083	-0.9467307705432211	0.0			0.0			0.0			0.0			0.0	0.8882215524211113	-0.7476933608605165	0.0	0.8659084903455279	-0.16828718314066535	0.0	0.8639210227672701	-0.40723230805596455	0.0	0.4266046810587128	-0.9678771842507032	0.0	0.1991817999108985	-1.064951955389191	0.0			0.0	1.3661310382751515	-0.9008119931544524	0.0	1.6042698073380726	-1.0774731181740174	0.0			0.0
115	3.8625954198473282	0.8812500000010806	-1.1148339843765427	0.0			0.0			0.0			0.0			0.0			0.0			0.0			0.0	1.4138830822664927	-0.9467336481096196	0.0			0.0			0.0			0.0			0.0	0.8884881583175688	-0.7484502676492585	0.0	0.8660102036239652	-0.1672988998495251	0.0	0.8630939968055006	-0.408483861846615	0.0	0.4258265231230223	-0.9687292700868293	0.0	0.19998154257198358	-1.0644376693484112	0.0			0.0	1.3665609258776703	-0.901144693748616	0.0	1.6178433348652566	-1.0769735310120272	0.0			0.0
116	3.8961832061068704	0.8812500000009792	-1.1148339843768853	0.0			0.0			0.0			0.0			0.0			0.0			0.0			0.0	1.4137247105612247	-0.9467679843691186	0.0			0.0			0.0			0.0			0.0	0.8888257302592819	-0.748844660030218	0.0	0.8655144050444252	-0.1671166234128353	0.0	0.8624782026353662	-0.40927136112781004	0.0	0.4255700438706638	-0.9692824582151425	0.0	0.19955969611618796	-1.0641002760773346	0.0			0.0	1.3669260083115076	-0.9010354914369306	0.0	1.632737659969695	-1.0768532867707399	0.0			0.0
117	3.9297709923664126	0.8812500000006731	-1.114833984376518	0.0			0.0			0.0			0.0			0.0			0.0			0.0			0.0	1.413326947114137	-0.9468547594316987	0.0			0.0			0.0			0.0			0.0	0.8889781049985923	-0.7490245896136803	0.0	0.8644319698136823	-0.16772038007945858	0.0	0.8621653795626478	-0.4095369735969813	0.0	0.4255623715254965	-0.9696156362909545	0.0	0.19772753831054024	-1.0638720816240497	0.0			0.0	1.3671584668339416	-0.9006009450912916	0.0	1.644177519688939	-1.0771294199975352	0.0			0.0
118	3.9633587786259543	0.8812500000003652	-1.114833984375957	0.0			0.0			0.0			0.0			0.0			0.0			0.0			0.0	1.4126093163591422	-0.9470112909806288	0.0			0.0			0.0			0.0			0.0	0.8888151100112763	-0.7491067509342085	0.0	0.862917270509206	-0.16881315294387753	0.0	0.8620731867816614	-0.40934796902001247	0.0	0.42569979900093546	-0.9697167813801285	0.0	0.19468376052622627	-1.063694272895911	0.0			0.0	1.367282101179747	-0.9000557390617058	0.0	1.6481326634258244	-1.077548747441395	0.0			0.0
119	3.9969465648854965	0.8812500000001395	-1.1148339843754673	0.0			0.0			0.0			0.0			0.0			0.0			0.0			0.0	1.4115858936129841	-0.9472344031482961	0.0			0.0			0.0			0.0			0.0	0.8883795917854015	-0.749113273572804	0.0	0.8612224713523241	-0.16996978841535687	0.0	0.8619296900114765	-0.4089132063493759	0.0	0.42619411830751225	-0.9694436881629157	0.0	0.19117425897593154	-1.0636570169146973	0.0			0.0	1.3673556326490075	-0.8995652958504323	0.0	1.642409866955478	-1.077893840245377	0.0			0.0
120	4.030534351145039	0.8812500000000086	-1.1148339843751391	0.0			0.0			0.0			0.0			0.0			0.0			0.0			0.0	1.4104312248257722	-0.947486038838118	0.0			0.0			0.0			0.0			0.0	0.8878067797004611	-0.7491209986004937	0.0	0.859592339450759	-0.17080332117439545	0.0	0.8614962944148388	-0.40849920548956614	0.0	0.42705415660954793	-0.968844670878768	0.0	0.18813158998515536	-1.063775637057319	0.0			0.0	1.3673727600520056	-0.8992128102419881	0.0	1.6292556372023945	-1.0781172929954959	0.0			0.0
121	4.06412213740458	0.8812499999999522	-1.1148339843749662	0.0			0.0			0.0			0.0			0.0			0.0			0.0			0.0	1.409407816156535	-0.9477090219948278	0.0			0.0			0.0			0.0			0.0	0.8872557407154261	-0.7492310222876406	0.0	0.8582083716344758	-0.17109349274088836	0.0	0.860669012138049	-0.40824703725835687	0.0	0.4279186668436634	-0.9682235865272032	0.0	0.1861120682112511	-1.0638919504281121	0.0			0.0	1.3672616094296006	-0.8989893017971218	0.0	1.615008854343942	-1.0781832590731268	0.0			0.0
122	4.097709923664122	0.8812499999999419	-1.114833984374904	0.0			0.0			0.0			0.0			0.0			0.0			0.0			0.0	1.408690207270914	-0.9478653529537975	0.0			0.0			0.0			0.0			0.0	0.886836244595461	-0.7494937138965864	0.0	0.8571474618847671	-0.17078219550744703	0.0	0.8594461326987438	-0.40817607842376463	0.0	0.42848240989491987	-0.9678216290564282	0.0	0.18500289657015248	-1.06387813365606	0.0			0.0	1.3669995330686768	-0.898831211643868	0.0	1.605380815153795	-1.0780520479121618	0.0			0.0
123	4.131297709923665	0.8812499999999533	-1.1148339843749042	0.0			0.0			0.0			0.0			0.0			0.0			0.0			0.0	1.4082924589882295	-0.9479519883997685	0.0			0.0			0.0			0.0			0.0	0.8865558028623196	-0.7499529277981045	0.0	0.8563820467960435	-0.169890014566706	0.0	0.858031122250979	-0.4083875968508855	0.0	0.42875850908028	-0.9676353836539858	0.0	0.18433767535796547	-1.0638426887104444	0.0			0.0	1.3666455924407306	-0.8987353140945751	0.0	1.6024813029517382	-1.0778884095357812	0.0			0.0
124	4.1648854961832065	0.8812499999999707	-1.1148339843749302	0.0			0.0			0.0			0.0			0.0			0.0			0.0			0.0	1.4081340704534546	-0.9479864773769052	0.0			0.0			0.0			0.0			0.0	0.8863725004433689	-0.7506147038386053	0.0	0.8558119601189443	-0.16856307618279998	0.0	0.8567742574334508	-0.40904097294023123	0.0	0.4289934126321504	-0.9675408236250153	0.0	0.18381540767280094	-1.0640981822229607	0.0			0.0	1.366268775986682	-0.8987133669547087	0.0	1.6045521300722114	-1.0780409544073113	0.0			0.0
